<?xml version="1.0" encoding="UTF-8"?>
<svg width="13px" height="13px" viewBox="0 0 13 13" version="1.1" xmlns="http://www.w3.org/2000/svg" xmlns:xlink="http://www.w3.org/1999/xlink">
    <!-- Generator: sketchtool 52.5 (67469) - http://www.bohemiancoding.com/sketch -->
    <title>F6C229F8-64F1-4125-BD1F-1118901D7D3A</title>
    <desc>Created with sketchtool.</desc>
    <g id="Home-Page---mobile" stroke="none" stroke-width="1" fill="none" fill-rule="evenodd">
        <g id="Claro" transform="translate(-149.000000, -402.000000)" fill="#000000" fill-rule="nonzero">
            <g id="Group-4" transform="translate(149.000000, 400.000000)">
                <g id="clock-icon" transform="translate(0.000000, 2.000000)">
                    <path d="M6.5,2.59467853e-16 C2.91229213,2.59467853e-16 0,2.91229213 0,6.5 C0,10.0877079 2.91229213,13 6.5,13 C10.0877079,13 13,10.0877079 13,6.5 C13,2.91229213 10.0877079,0 6.5,2.59467853e-16 Z M6.5,0.310393258 C9.92235955,0.310393258 12.6941348,3.07764045 12.6941348,6.5 C12.6941348,9.92235955 9.92221348,12.6941348 6.5,12.6941348 C3.07778652,12.6941348 0.305865169,9.92221348 0.305865169,6.5 C0.305865169,3.07764045 3.07778652,0.310393258 6.5,0.310393258 Z M9.02419101,4.73346067 C9.00593258,4.73802528 8.98938607,4.74601327 8.97398034,4.75628371 L6.48177809,6.27626124 L6.46351966,6.28539045 C6.46066682,6.28653153 6.45724329,6.28824329 6.45439045,6.28995506 C6.45267869,6.29109613 6.45153761,6.2928079 6.44982584,6.29451966 C6.44811408,6.29566074 6.446973,6.29737251 6.44526124,6.29908427 C6.44354947,6.30022535 6.44240839,6.30193711 6.44069663,6.30364888 C6.43784379,6.30650172 6.43442026,6.30935456 6.43156742,6.31277809 C6.42985565,6.31391917 6.42871457,6.31563093 6.42700281,6.31677216 C6.42529104,6.31848378 6.42414997,6.32019554 6.4224382,6.32133676 C6.42072644,6.32476015 6.41958536,6.32761299 6.4178736,6.33046598 C6.41616183,6.3321776 6.41502075,6.33331882 6.41330899,6.33503058 C6.41159722,6.3367422 6.41045615,6.33788343 6.40874438,6.33959519 L6.40874438,6.3487244 C6.40703262,6.35043602 6.40589154,6.35157725 6.40417978,6.35328901 C6.40246801,6.35614185 6.40132693,6.3589947 6.39961517,6.36241822 C6.3979034,6.36527107 6.39676233,6.36812391 6.39505056,6.37154744 L6.39505056,6.37611204 L6.39505056,6.38467057 C6.3933388,6.38638234 6.39219772,6.3880941 6.39048596,6.38923518 L6.39048596,6.39836439 L6.39048596,6.40749361 L6.39048596,6.41205821 L6.39048596,6.41662282 C6.38991542,6.42575203 6.38991542,6.43488125 6.39048596,6.44401046 L6.39048596,10.9858307 C6.38706243,11.0286241 6.40189747,11.0708463 6.43099629,11.1022289 C6.46009584,11.13361 6.50060618,11.1512988 6.54339955,11.1512988 C6.58619292,11.1512988 6.62727438,11.1336115 6.65637393,11.1022289 C6.68490236,11.0708478 6.69973843,11.0286241 6.69631461,10.9858307 L6.69631461,6.50331383 L9.13388764,5.015179 C9.20007371,4.97752136 9.2286036,4.89707035 9.20121596,4.82631383 C9.17382831,4.75556316 9.09851157,4.71505136 9.02434292,4.732169 L9.02419101,4.73346067 Z" id="Shape"></path>
                </g>
            </g>
        </g>
    </g>
</svg>