<svg width="24" height="24" viewBox="0 0 24 24" fill="none" xmlns="http://www.w3.org/2000/svg">
<path d="M6.29524 9.63001V7.45001C6.29524 6.07075 6.84315 4.74799 7.81843 3.7727C8.79372 2.79742 10.1165 2.24951 11.4957 2.24951C12.875 2.24951 14.1978 2.79742 15.1731 3.7727C16.1483 4.74799 16.6962 6.07075 16.6962 7.45001V9.63001M4.58524 9.63001H18.4152C18.667 9.63028 18.9084 9.73048 19.0863 9.90861C19.2643 10.0867 19.3642 10.3282 19.3642 10.58V20.8C19.3642 21.0519 19.2642 21.2934 19.0862 21.4716C18.9081 21.6497 18.6666 21.7499 18.4147 21.75H4.58574C4.33379 21.75 4.09215 21.6499 3.91399 21.4718C3.73583 21.2936 3.63574 21.052 3.63574 20.8V10.58C3.63574 10.3281 3.73583 10.0864 3.91399 9.90826C4.09215 9.7301 4.33379 9.63001 4.58574 9.63001H4.58524Z" stroke="white" stroke-linecap="round" stroke-linejoin="round"/>
<path d="M11.4955 17.7071C12.6095 17.7071 13.5125 16.8041 13.5125 15.6901C13.5125 14.5761 12.6095 13.6731 11.4955 13.6731C10.3816 13.6731 9.47852 14.5761 9.47852 15.6901C9.47852 16.8041 10.3816 17.7071 11.4955 17.7071Z" stroke="white" stroke-linecap="round" stroke-linejoin="round"/>
</svg>
