<svg width="78" height="60" viewBox="0 0 78 60" fill="none" xmlns="http://www.w3.org/2000/svg">
<path fill-rule="evenodd" clip-rule="evenodd" d="M44.5229 42.4449L31.8135 24.9675L45.2777 41.8745C45.4325 42.0667 45.3913 42.3544 45.1851 42.5167C44.9798 42.6781 44.6886 42.6524 44.5347 42.4612C44.5302 42.4562 44.5263 42.4507 44.5229 42.4449Z" fill="#010202"/>
<path d="M44.6067 41.7542C45.3103 42.6525 45.9582 50.5407 45.9582 50.5407C45.9582 50.5407 50.5697 45.3252 51.6098 38.0116C52.6483 30.698 51.2311 29.7203 50.0009 26.0059C48.7706 22.2915 43.5801 17.5029 40.9243 16.1879C39.009 15.2401 32.876 13.0849 29.5537 11.9398C28.3571 11.5299 27.0081 12.2062 26.5832 13.4221C24.6107 19.0732 24.2362 25.1179 25.8628 30.6827C26.8281 33.9821 28.4875 37.0988 31.326 38.6256C31.326 38.6256 37.9369 41.9216 42.3389 41.0882C46.7391 40.2548 45.9296 48.6536 45.9296 48.6536" stroke="#010202" stroke-width="0.5" stroke-linecap="round" stroke-linejoin="round"/>
<path fill-rule="evenodd" clip-rule="evenodd" d="M39.6352 57.7987L36.2574 58.3896L33.1169 56.9961L29.6986 56.7493L26.978 54.6334L23.7163 53.5634L21.5746 50.8481L18.6605 49.0182L17.2206 45.8622L14.8223 43.3774L14.1693 39.9618L12.4274 36.9672L12.5982 33.4936L11.6128 30.1626L12.5974 26.8316L12.4274 23.3579L14.1693 20.3625L14.8223 16.9486L17.2206 14.4638L18.6596 11.307L21.5746 9.47625L23.7163 6.76088L26.978 5.69181L29.6986 3.57587L33.1169 3.3291L36.2574 1.93555L39.6352 2.52644L43.0131 1.93555L46.1536 3.3291L49.5718 3.57587L52.2925 5.69181L55.5542 6.76173L57.6958 9.4771L60.61 11.307L62.0498 14.463L64.4481 16.9478L65.1011 20.3633L66.8431 23.3579L66.6723 26.8316L67.6577 30.1626L66.6731 33.4936L66.8431 36.9672L65.1011 39.9627L64.4481 43.3765L62.0498 45.8614L60.6108 49.0182L57.6958 50.8489L55.5542 53.5643L52.2925 54.6334L49.5718 56.7493L46.1536 56.9961L43.0131 58.3896L39.6352 57.7987Z" stroke="black" stroke-width="0.5"/>
</svg>
